<?xml version="1.0" encoding="UTF-8"?>
<!DOCTYPE svg PUBLIC "-//W3C//DTD SVG 1.1//EN" "http://www.w3.org/Graphics/SVG/1.1/DTD/svg11.dtd">
<svg xmlns="http://www.w3.org/2000/svg" version="1.1" width="512px" height="512px" style="shape-rendering:geometricPrecision; text-rendering:geometricPrecision; image-rendering:optimizeQuality; fill-rule:evenodd; clip-rule:evenodd" xmlns:xlink="http://www.w3.org/1999/xlink">
<g><path style="opacity:0.948" fill="#000000" d="M 88.5,23.5 C 199.834,23.3333 311.167,23.5 422.5,24C 447.442,29.6075 463.275,44.7741 470,69.5C 471.107,87.1375 471.607,104.804 471.5,122.5C 471.637,138.884 471.137,155.217 470,171.5C 467.737,178.097 463.237,182.264 456.5,184C 429.169,184.5 401.835,184.667 374.5,184.5C 374.667,280.834 374.5,377.167 374,473.5C 367.255,487.749 356.755,491.249 342.5,484C 300.833,457.667 259.167,431.333 217.5,405C 214.468,402.793 211.134,401.293 207.5,400.5C 203.132,401.517 199.132,403.35 195.5,406C 154.002,432.583 112.336,458.917 70.5,485C 58.8302,490.306 49.3302,487.806 42,477.5C 41.1779,475.212 40.5112,472.878 40,470.5C 39.3333,339.833 39.3333,209.167 40,78.5C 43.6933,48.9832 59.86,30.6498 88.5,23.5 Z M 92.5,43.5 C 184.169,43.1667 275.836,43.5 367.5,44.5C 360.613,52.946 356.446,62.6127 355,73.5C 354.833,204.501 354.333,335.501 353.5,466.5C 309.833,439 266.167,411.5 222.5,384C 211.663,379.108 200.996,379.441 190.5,385C 147.333,412.167 104.167,439.333 61,466.5C 60.3333,335.5 60.3333,204.5 61,73.5C 65.9,57.4293 76.4,47.4293 92.5,43.5 Z M 407.5,43.5 C 429.812,42.7337 443.979,53.0671 450,74.5C 450.5,104.498 450.667,134.498 450.5,164.5C 425.167,164.5 399.833,164.5 374.5,164.5C 374.039,133.792 374.539,103.125 376,72.5C 380.648,56.3473 391.148,46.6807 407.5,43.5 Z M 195.5,127.5 C 247.294,125.296 283.128,147.963 303,195.5C 315.545,237.846 306.045,274.346 274.5,305C 235.052,335.719 193.719,338.385 150.5,313C 107.93,279.563 96.0967,237.396 115,186.5C 131.825,153.174 158.659,133.507 195.5,127.5 Z M 206.5,171.5 C 207.376,171.369 208.043,171.702 208.5,172.5C 212.606,180.378 216.439,188.378 220,196.5C 222.956,201.231 227.123,204.398 232.5,206C 242.519,207.574 252.519,209.241 262.5,211C 253.598,219.232 245.431,228.066 238,237.5C 237.262,239.953 236.762,242.453 236.5,245C 237.897,254.549 239.564,264.049 241.5,273.5C 241.167,274.167 240.833,274.833 240.5,275.5C 230.095,269.13 219.095,264.13 207.5,260.5C 195.848,264.239 184.681,269.239 174,275.5C 174.231,267.774 175.231,260.107 177,252.5C 178.356,245.424 177.356,238.757 174,232.5C 166.833,225.333 159.667,218.167 152.5,211C 164.343,209.405 176.01,207.072 187.5,204C 189.667,201.833 191.833,199.667 194,197.5C 198.451,188.933 202.617,180.267 206.5,171.5 Z"/></g>
<g><path style="opacity:0.924" fill="#000000" d="M 95.5,61.5 C 120.169,61.3334 144.836,61.5 169.5,62C 177.318,65.4526 179.151,70.9526 175,78.5C 173.2,80.317 171.034,81.4837 168.5,82C 145.169,82.5 121.836,82.6666 98.5,82.5C 98.6663,89.8409 98.4997,97.1742 98,104.5C 91.237,112.622 84.9036,112.289 79,103.5C 78.0769,93.4255 78.4103,83.4255 80,73.5C 83.3042,66.9484 88.4708,62.9484 95.5,61.5 Z"/></g>
<g><path style="opacity:0.942" fill="#000000" d="M 205.5,106.5 C 257.82,108.563 295.654,132.896 319,179.5C 339.111,233.627 328.611,280.794 287.5,321C 250.608,350.576 209.608,357.909 164.5,343C 114.223,321.704 87.8896,283.704 85.5,229C 87.5153,176.936 111.849,139.603 158.5,117C 173.663,110.604 189.33,107.104 205.5,106.5 Z M 195.5,127.5 C 158.659,133.507 131.825,153.174 115,186.5C 96.0967,237.396 107.93,279.563 150.5,313C 193.719,338.385 235.052,335.719 274.5,305C 306.045,274.346 315.545,237.846 303,195.5C 283.128,147.963 247.294,125.296 195.5,127.5 Z M 206.5,171.5 C 202.617,180.267 198.451,188.933 194,197.5C 191.833,199.667 189.667,201.833 187.5,204C 176.01,207.072 164.343,209.405 152.5,211C 159.667,218.167 166.833,225.333 174,232.5C 177.356,238.757 178.356,245.424 177,252.5C 175.231,260.107 174.231,267.774 174,275.5C 184.681,269.239 195.848,264.239 207.5,260.5C 219.095,264.13 230.095,269.13 240.5,275.5C 240.833,274.833 241.167,274.167 241.5,273.5C 239.564,264.049 237.897,254.549 236.5,245C 236.762,242.453 237.262,239.953 238,237.5C 245.431,228.066 253.598,219.232 262.5,211C 252.519,209.241 242.519,207.574 232.5,206C 227.123,204.398 222.956,201.231 220,196.5C 216.439,188.378 212.606,180.378 208.5,172.5C 208.043,171.702 207.376,171.369 206.5,171.5 Z"/></g>
<g><path style="opacity:0.939" fill="#000000" d="M 200.5,150.5 C 210.598,148.475 218.764,151.475 225,159.5C 229.439,168.045 233.606,176.711 237.5,185.5C 248.852,187.559 260.185,189.725 271.5,192C 283.274,199.59 286.108,209.757 280,222.5C 272.667,229.833 265.333,237.167 258,244.5C 258.895,255.044 260.395,265.544 262.5,276C 259.59,292.623 249.923,298.956 233.5,295C 224.99,290.245 216.324,285.745 207.5,281.5C 197.591,286.622 187.591,291.455 177.5,296C 162.814,297.168 154.481,290.501 152.5,276C 153.791,266.089 155.457,256.256 157.5,246.5C 150.848,239.348 144.015,232.348 137,225.5C 129.047,214.312 129.881,203.812 139.5,194C 141.717,192.725 144.051,191.725 146.5,191C 156.629,189.701 166.629,187.868 176.5,185.5C 181.078,176.01 185.911,166.676 191,157.5C 193.79,154.535 196.957,152.202 200.5,150.5 Z M 206.5,171.5 C 202.617,180.267 198.451,188.933 194,197.5C 191.833,199.667 189.667,201.833 187.5,204C 176.01,207.072 164.343,209.405 152.5,211C 159.667,218.167 166.833,225.333 174,232.5C 177.356,238.757 178.356,245.424 177,252.5C 175.231,260.107 174.231,267.774 174,275.5C 184.681,269.239 195.848,264.239 207.5,260.5C 219.095,264.13 230.095,269.13 240.5,275.5C 240.833,274.833 241.167,274.167 241.5,273.5C 239.564,264.049 237.897,254.549 236.5,245C 236.762,242.453 237.262,239.953 238,237.5C 245.431,228.066 253.598,219.232 262.5,211C 252.519,209.241 242.519,207.574 232.5,206C 227.123,204.398 222.956,201.231 220,196.5C 216.439,188.378 212.606,180.378 208.5,172.5C 208.043,171.702 207.376,171.369 206.5,171.5 Z"/></g>
<g><path style="opacity:0.938" fill="#000000" d="M 84.5,378.5 C 90.2103,377.275 94.7103,378.941 98,383.5C 98.3333,388.167 98.6667,392.833 99,397.5C 108.415,391.209 117.915,385.042 127.5,379C 137.948,376.786 142.782,380.953 142,391.5C 141.293,393.081 140.46,394.581 139.5,396C 124.001,405.917 108.334,415.584 92.5,425C 86.4188,426.858 81.9188,425.025 79,419.5C 78.3333,407.833 78.3333,396.167 79,384.5C 80.3597,381.977 82.193,379.977 84.5,378.5 Z"/></g>
<g><path style="opacity:0.928" fill="#000000" d="M 277.5,378.5 C 280.518,378.335 283.518,378.502 286.5,379C 296.084,384.708 305.584,390.541 315,396.5C 315.333,392.833 315.667,389.167 316,385.5C 317.434,380.45 320.767,378.117 326,378.5C 331.696,378.195 335.029,380.861 336,386.5C 336.667,396.833 336.667,407.167 336,417.5C 333.832,424.836 328.999,427.336 321.5,425C 306.668,415.416 291.668,406.083 276.5,397C 272.251,392.454 271.418,387.287 274,381.5C 275.145,380.364 276.312,379.364 277.5,378.5 Z"/></g>
</svg>
