<?xml version="1.0" encoding="UTF-8"?>
<!DOCTYPE svg PUBLIC "-//W3C//DTD SVG 1.1//EN" "http://www.w3.org/Graphics/SVG/1.1/DTD/svg11.dtd">
<svg xmlns="http://www.w3.org/2000/svg" version="1.1" width="512px" height="512px" style="shape-rendering:geometricPrecision; text-rendering:geometricPrecision; image-rendering:optimizeQuality; fill-rule:evenodd; clip-rule:evenodd" xmlns:xlink="http://www.w3.org/1999/xlink">
<g><path style="opacity:0.949" fill="#000000" d="M 511.5,107.5 C 511.5,216.833 511.5,326.167 511.5,435.5C 509.014,444.151 503.348,449.651 494.5,452C 386.833,452.667 279.167,452.667 171.5,452C 168.634,450.607 167.301,448.274 167.5,445C 167.301,441.726 168.634,439.393 171.5,438C 209.167,437.667 246.833,437.333 284.5,437C 243.833,384 203.167,331 162.5,278C 139.502,277.5 116.502,277.333 93.5,277.5C 93.6666,304.835 93.5,332.169 93,359.5C 91.5116,367.998 86.6783,373.498 78.5,376C 64.7978,376.138 51.1311,376.805 37.5,378C 20.4628,384.228 13.2962,396.395 16,414.5C 19.1667,425.667 26.3333,432.833 37.5,436C 73.8041,437.287 110.137,437.954 146.5,438C 148.333,438.5 149.5,439.667 150,441.5C 151.378,445.987 150.212,449.487 146.5,452C 109.5,452.667 72.5,452.667 35.5,452C 16.3193,447.319 4.31928,435.485 -0.5,416.5C -0.5,309.167 -0.5,201.833 -0.5,94.5C 4.31928,75.5147 16.3193,63.6814 35.5,59C 49.8333,58.3333 64.1667,58.3333 78.5,59C 85.2366,60.7361 89.7366,64.9028 92,71.5C 93.3288,78.092 93.8288,84.7586 93.5,91.5C 109.847,91.8328 126.18,91.4994 142.5,90.5C 147.314,76.0906 157.314,68.4239 172.5,67.5C 187.754,68.619 198.088,76.2857 203.5,90.5C 300.498,91.3333 397.498,91.8333 494.5,92C 502.91,94.247 508.577,99.4137 511.5,107.5 Z M 44.5,73.5 C 53.8393,73.3335 63.1726,73.5002 72.5,74C 74.286,74.7845 75.786,75.9512 77,77.5C 77.6667,170.833 77.6667,264.167 77,357.5C 75.786,359.049 74.286,360.215 72.5,361C 60.1667,361.333 47.8333,361.667 35.5,362C 27.5451,363.422 20.7117,366.922 15,372.5C 14.3333,283.167 14.3333,193.833 15,104.5C 16.5441,86.1254 26.3774,75.792 44.5,73.5 Z M 170.5,83.5 C 180.981,83.4821 186.981,88.6488 188.5,99C 185.052,113.482 176.719,117.482 163.5,111C 161.47,109.104 159.803,106.937 158.5,104.5C 161.122,101.035 161.122,97.5354 158.5,94C 160.841,88.4858 164.841,84.9858 170.5,83.5 Z M 93.5,107.5 C 109.837,107.333 126.17,107.5 142.5,108C 146.333,118.5 153.5,125.667 164,129.5C 164.333,137.167 164.667,144.833 165,152.5C 167.23,159.463 171.73,161.296 178.5,158C 179.126,157.25 179.626,156.416 180,155.5C 180.168,146.814 180.668,138.148 181.5,129.5C 192.3,125.867 199.633,118.7 203.5,108C 254.166,107.5 304.832,107.333 355.5,107.5C 355.5,126.833 355.5,146.167 355.5,165.5C 333.831,165.333 312.164,165.5 290.5,166C 286.32,167.002 283.486,169.502 282,173.5C 281.5,188.163 281.333,202.83 281.5,217.5C 250.832,217.333 220.165,217.5 189.5,218C 182.337,221.994 181.67,226.994 187.5,233C 245.833,233.667 304.167,233.667 362.5,233C 366.667,231.5 369.5,228.667 371,224.5C 371.5,185.501 371.667,146.501 371.5,107.5C 380.833,107.5 390.167,107.5 399.5,107.5C 399.333,146.501 399.5,185.501 400,224.5C 401.5,228.667 404.333,231.5 408.5,233C 437.498,233.5 466.498,233.667 495.5,233.5C 495.5,242.833 495.5,252.167 495.5,261.5C 404.166,261.333 312.833,261.5 221.5,262C 217.633,263.86 215.3,266.86 214.5,271C 215.654,275.142 217.488,278.976 220,282.5C 260.196,333.729 300.03,385.229 339.5,437C 328.167,437.667 316.833,437.667 305.5,437C 260.882,378.714 215.882,320.714 170.5,263C 144.898,261.528 119.231,261.028 93.5,261.5C 93.5,252.167 93.5,242.833 93.5,233.5C 115.169,233.667 136.836,233.5 158.5,233C 163.087,230.237 164.254,226.403 162,221.5C 160.681,219.513 158.848,218.346 156.5,218C 135.503,217.5 114.503,217.333 93.5,217.5C 93.5,180.833 93.5,144.167 93.5,107.5 Z M 415.5,107.5 C 440.836,107.333 466.169,107.5 491.5,108C 492.931,108.465 494.097,109.299 495,110.5C 495.5,146.165 495.667,181.832 495.5,217.5C 468.833,217.5 442.167,217.5 415.5,217.5C 415.5,180.833 415.5,144.167 415.5,107.5 Z M 297.5,181.5 C 316.833,181.5 336.167,181.5 355.5,181.5C 355.5,193.5 355.5,205.5 355.5,217.5C 336.167,217.5 316.833,217.5 297.5,217.5C 297.5,205.5 297.5,193.5 297.5,181.5 Z M 237.5,278.5 C 323.332,277.501 409.332,277.167 495.5,277.5C 495.667,329.168 495.5,380.834 495,432.5C 494.5,434.333 493.333,435.5 491.5,436C 489.5,436.333 487.5,436.667 485.5,437C 443.496,437.833 401.496,437.667 359.5,436.5C 319.161,383.505 278.494,330.838 237.5,278.5 Z M 349.5,305.5 C 360.477,304.987 366.81,310.154 368.5,321C 364.893,334.971 356.56,338.971 343.5,333C 337.13,327.081 335.963,320.247 340,312.5C 342.529,309.115 345.696,306.782 349.5,305.5 Z M 137.5,333.5 C 151.461,332.295 157.961,338.628 157,352.5C 152.118,363.24 144.284,366.074 133.5,361C 123.659,350.321 124.992,341.154 137.5,333.5 Z"/></g>
<g><path style="opacity:0.927" fill="#000000" d="M 347.5,289.5 C 369.52,288.69 381.854,299.19 384.5,321C 383.259,336.342 375.426,346.508 361,351.5C 360.667,360.167 360.333,368.833 360,377.5C 356.58,381.753 352.413,382.587 347.5,380C 346.107,378.829 345.273,377.329 345,375.5C 344.667,367.5 344.333,359.5 344,351.5C 325.622,343.745 318.622,330.078 323,310.5C 327.705,299.284 335.872,292.284 347.5,289.5 Z M 349.5,305.5 C 345.696,306.782 342.529,309.115 340,312.5C 335.963,320.247 337.13,327.081 343.5,333C 356.56,338.971 364.893,334.971 368.5,321C 366.81,310.154 360.477,304.987 349.5,305.5 Z"/></g>
<g><path style="opacity:0.925" fill="#000000" d="M 134.5,317.5 C 160.988,315.824 173.822,328.157 173,354.5C 170.455,367.21 162.955,375.21 150.5,378.5C 150.666,386.84 150.5,395.173 150,403.5C 145.37,411.084 140.37,411.418 135,404.5C 134.5,395.84 134.334,387.173 134.5,378.5C 119.545,374.198 111.545,364.198 110.5,348.5C 111.819,332.863 119.819,322.53 134.5,317.5 Z M 137.5,333.5 C 124.992,341.154 123.659,350.321 133.5,361C 144.284,366.074 152.118,363.24 157,352.5C 157.961,338.628 151.461,332.295 137.5,333.5 Z"/></g>
</svg>
