<?xml version="1.0" encoding="UTF-8"?>
<svg version="1.1" viewBox="0 0 2048 2048" width="512" height="512" xmlns="http://www.w3.org/2000/svg">
<path transform="translate(0)" d="m0 0h2048v2048h-2048z" fill="#FEFEFE"/>
<path transform="translate(523,85)" d="m0 0h21l23 2 26 5 26 8 25 11 19 11 12 8 8 6 4 1h16l22 2 28 6 27 9 22 10 17 10 17 12 10 8 10 9 7 6 7 8 11 13 12 17 11 19 9 19 9 25 6 25 3 23 1 25 6 10 7 10 9 15 12 25 9 27 5 22 3 24v37l-4 29-5 20-7 21-9 20-10 18-8 12-7 10-1 4-1 22-3 24-4 18 1 7 10 15 15 24 16 25 42 66 9 16 5 15 2 13v13l-3 16-6 16-7 12-12 13-12 9-14 7-13 4-12 2h-13l-16-3-14-5-14-8-23-15-16-10-41-26-25-16-19-12-8-5-9 1-28 5-9 1-25 1-7 4-14 10-19 11-22 10-28 9-25 5-16 2h-38l-23-3-27-6-25-9-17-8-21-12-17-12-3-1-25-1-28-4-23-6-24-9-19-9-20-12-17-13-14-12-15-15-9-11-11-15-11-18-12-25-7-20-5-18-4-22-2-21-1-17-7-11-7-10-9-16-11-23-8-24-5-21-3-22-1-13v-18l2-24 5-26 7-23 10-24 11-20 16-24 2-30 3-21 6-25 8-22 8-18 11-19 9-13 10-13 11-12 16-16 14-11 14-10 19-11 19-9 23-8 19-5 16-3 21-2 20-1 6-4 10-7 20-12 21-10 22-8 25-6 20-3z"/>
<path transform="translate(1433,853)" d="m0 0h31l34 3 27 5 24 6 26 9 29 13 20 11 19 12 19 14 14 12 12 11 16 16 7 8 12 15 12 17 11 18 13 24 9 21 8 22 7 25 5 26 3 26 1 15v25l-2 26-4 26-6 26-6 20-8 21-11 24-14 25-11 16-12 16-9 11-9 10v2l18 10 27 18 19 14 14 11 11 10 8 7 12 11 17 17 7 8 12 14 11 14 12 16 16 24 9 15 10 18 9 17 12 27 11 29 9 29 7 28 6 33 4 35 1 14 1 28-8 1h-162l-1-1-3-39-4-26-6-26-6-20-11-28-14-28-13-21-12-17-13-16-11-12-9-10-12-11-14-12-16-12-15-10-17-10-21-11-27-11-21-7-24-6-30-5-21-2h-43l-29 3-31 6-25 7-24 9-24 11-20 11-14 9-17 12-17 14-12 11-7 6-7 8-13 14-13 17-11 16-8 13-10 18-10 21-10 26-7 25-6 29-4 37-1 16-1 1-57 1h-69l-44-1 1-30 4-41 6-34 7-29 9-30 11-29 11-25 14-28 16-27 8-12 12-17 10-13 13-16 9-10 7-8 8-8 1-2h2l2-4h2v-2l8-7 9-9 11-9 9-8 17-13 18-13 22-14 16-9-2-4-12-14-11-14-13-19-8-13-8-14-12-26-10-27-8-30-6-36-2-25v-25l2-28 5-30 7-28 8-24 10-23 11-22 13-21 12-17 13-16 11-13 18-18 11-9 9-8 19-14 19-12 22-12 22-10 28-10 26-7 27-5z"/>
<path transform="translate(1436,1024)" d="m0 0h29l21 3 22 6 18 8 13 7 13 9 10 8 13 12 12 14 10 15 10 19 7 19 5 21 2 15v29l-3 21-6 21-7 17-9 17-13 18-15 16-10 9-16 11-16 9-19 8-23 6-13 2h-42l-18-3-17-5-21-9-14-8-14-10-15-13-11-12-11-15-10-17-9-21-6-22-3-20v-29l3-20 5-19 8-20 8-15 10-14 8-10 12-13 11-9 11-8 15-9 17-8 18-6 20-4z" fill="#FEFEFE"/>
</svg>
