<?xml version="1.0" encoding="UTF-8"?>
<!DOCTYPE svg PUBLIC "-//W3C//DTD SVG 1.1//EN" "http://www.w3.org/Graphics/SVG/1.1/DTD/svg11.dtd">
<svg xmlns="http://www.w3.org/2000/svg" version="1.1" width="512px" height="512px" style="shape-rendering:geometricPrecision; text-rendering:geometricPrecision; image-rendering:optimizeQuality; fill-rule:evenodd; clip-rule:evenodd" xmlns:xlink="http://www.w3.org/1999/xlink">
<g><path style="opacity:0.948" fill="#000000" d="M 375.5,-0.5 C 387.5,-0.5 399.5,-0.5 411.5,-0.5C 439.448,6.94206 459.281,23.9421 471,50.5C 473.454,57.3144 475.12,64.3144 476,71.5C 476.333,92.8333 476.667,114.167 477,135.5C 478.394,143.457 482.228,149.957 488.5,155C 493.833,158 499.167,161 504.5,164C 507.454,166.441 509.787,169.275 511.5,172.5C 511.5,177.167 511.5,181.833 511.5,186.5C 508.255,194.908 502.255,200.408 493.5,203C 474.158,203.167 454.825,203.667 435.5,204.5C 426.687,233.746 407.354,244.58 377.5,237C 363.51,230.502 354.843,219.669 351.5,204.5C 332.175,203.667 312.842,203.167 293.5,203C 278.336,197.173 272.836,186.339 277,170.5C 278.458,168.04 280.291,165.873 282.5,164C 290.617,160.529 297.783,155.695 304,149.5C 307.09,145.318 309.09,140.651 310,135.5C 310.333,114.167 310.667,92.8333 311,71.5C 317.621,34.0512 339.121,10.0512 375.5,-0.5 Z M 382.5,15.5 C 412.145,12.7415 434.979,23.7415 451,48.5C 455.071,56.3812 457.738,64.7145 459,73.5C 459.052,96.5417 459.719,119.542 461,142.5C 465.747,159.75 476.581,171.416 493.5,177.5C 495.186,181.195 494.186,184.029 490.5,186C 426.891,187.656 363.224,187.989 299.5,187C 294.259,185.637 292.259,182.47 293.5,177.5C 310.252,171.328 321.086,159.661 326,142.5C 327.281,119.542 327.948,96.5417 328,73.5C 333.67,42.332 351.837,22.9986 382.5,15.5 Z M 369.5,203.5 C 385.5,203.5 401.5,203.5 417.5,203.5C 412.6,218.537 402.266,224.704 386.5,222C 377.506,218.841 371.839,212.674 369.5,203.5 Z"/></g>
<g><path style="opacity:0.931" fill="#000000" d="M 335.5,511.5 C 332.833,511.5 330.167,511.5 327.5,511.5C 324.746,509.671 323.246,507.005 323,503.5C 320.221,438.427 289.721,391.593 231.5,363C 162.432,337.079 102.598,350.913 52,404.5C 27.6693,435.149 15.0026,470.149 14,509.5C 13.0053,510.066 12.172,510.733 11.5,511.5C 8.83333,511.5 6.16667,511.5 3.5,511.5C 1.83333,510.5 0.5,509.167 -0.5,507.5C -0.5,500.167 -0.5,492.833 -0.5,485.5C 11.1006,411.062 52.7673,362.229 124.5,339C 86.4334,317.378 68.9334,284.544 72,240.5C 79.176,196.321 104.343,168.154 147.5,156C 196.567,148.12 233.401,165.62 258,208.5C 274.654,247.916 269.654,284.249 243,317.5C 234.917,326.588 225.417,333.755 214.5,339C 275.667,357.5 315.5,397.333 334,458.5C 338.547,474.545 340.214,490.878 339,507.5C 338.31,509.35 337.144,510.684 335.5,511.5 Z M 161.5,170.5 C 207.148,170.219 236.314,191.886 249,235.5C 254.538,276.592 239.038,306.759 202.5,326C 165.121,339.992 132.954,332.158 106,302.5C 87.2288,276.867 83.5622,249.201 95,219.5C 108.679,191.583 130.846,175.25 161.5,170.5 Z"/></g>
</svg>
