<?xml version="1.0" encoding="UTF-8"?>
<!DOCTYPE svg PUBLIC "-//W3C//DTD SVG 1.1//EN" "http://www.w3.org/Graphics/SVG/1.1/DTD/svg11.dtd">
<svg xmlns="http://www.w3.org/2000/svg" version="1.1" width="512px" height="512px" style="shape-rendering:geometricPrecision; text-rendering:geometricPrecision; image-rendering:optimizeQuality; fill-rule:evenodd; clip-rule:evenodd" xmlns:xlink="http://www.w3.org/1999/xlink">
<g><path style="opacity:0.962" fill="#000000" d="M 246.5,-0.5 C 252.5,-0.5 258.5,-0.5 264.5,-0.5C 270.621,1.22734 276.288,4.06067 281.5,8C 309.243,29.621 337.076,51.121 365,72.5C 365.333,49.8333 365.667,27.1667 366,4.5C 367.366,2.63834 368.866,0.971672 370.5,-0.5C 393.833,-0.5 417.167,-0.5 440.5,-0.5C 442.134,0.971672 443.634,2.63834 445,4.5C 445.333,47.8333 445.667,91.1667 446,134.5C 463.167,147.667 480.333,160.833 497.5,174C 504.115,180.415 508.782,187.915 511.5,196.5C 511.5,202.5 511.5,208.5 511.5,214.5C 501.874,241.148 483.208,250.648 455.5,243C 452.368,241.365 449.368,239.532 446.5,237.5C 445.167,282.5 445.167,327.5 446.5,372.5C 470.484,379.985 485.317,395.985 491,420.5C 501.361,428.57 508.194,438.903 511.5,451.5C 511.5,458.167 511.5,464.833 511.5,471.5C 505.833,492.5 492.5,505.833 471.5,511.5C 327.5,511.5 183.5,511.5 39.5,511.5C 18.5,505.833 5.16667,492.5 -0.5,471.5C -0.5,464.833 -0.5,458.167 -0.5,451.5C 2.80582,438.903 9.63915,428.57 20,420.5C 25.6552,396.011 40.4885,380.011 64.5,372.5C 65.8333,327.5 65.8333,282.5 64.5,237.5C 52.6042,245.544 39.6042,247.71 25.5,244C 11.2987,238.97 2.63202,229.136 -0.5,214.5C -0.5,208.5 -0.5,202.5 -0.5,196.5C 1.71853,187.58 6.3852,180.08 13.5,174C 37.6542,155.424 61.9875,137.09 86.5,119C 97.6876,118.52 101.854,123.687 99,134.5C 75.7386,153.764 51.9052,172.264 27.5,190C 20.9667,195.795 18.8,202.961 21,211.5C 23.7027,220.612 29.8693,224.946 39.5,224.5C 43.9172,224.793 47.9172,223.626 51.5,221C 116.986,170.091 182.653,119.425 248.5,69C 253.167,65.6667 257.833,65.6667 262.5,69C 329.627,121.394 397.294,173.061 465.5,224C 483.667,225.833 491.833,217.667 490,199.5C 488.698,195.726 486.531,192.559 483.5,190C 411.5,134.667 339.5,79.3333 267.5,24C 259.5,19.3333 251.5,19.3333 243.5,24C 218.167,43.6667 192.833,63.3333 167.5,83C 158.282,86.5587 152.615,83.5587 150.5,74C 150.816,69.6782 152.816,66.3449 156.5,64C 181.118,45.7164 205.452,27.0498 229.5,8C 234.712,4.06067 240.379,1.22734 246.5,-0.5 Z M 385.5,19.5 C 398.833,19.5 412.167,19.5 425.5,19.5C 425.667,52.5017 425.5,85.5017 425,118.5C 412,108.5 399,98.5 386,88.5C 385.5,65.5024 385.333,42.5024 385.5,19.5 Z M 253.5,91.5 C 254.873,91.3433 256.207,91.51 257.5,92C 313.333,135.167 369.167,178.333 425,221.5C 425.5,271.499 425.667,321.499 425.5,371.5C 410.078,373.211 397.078,379.711 386.5,391C 368.093,389.875 353.093,396.375 341.5,410.5C 284.167,411.833 226.833,411.833 169.5,410.5C 157.907,396.375 142.907,389.875 124.5,391C 114.174,380.003 101.507,373.503 86.5,371.5C 86.3333,321.166 86.5,270.832 87,220.5C 142.686,177.636 198.186,134.636 253.5,91.5 Z M 208.5,226.5 C 220.873,224.345 230.706,228.345 238,238.5C 241.47,243.774 244.136,249.44 246,255.5C 250.611,260.916 256.111,261.916 262.5,258.5C 265.715,251.738 269.215,245.072 273,238.5C 283.71,225.455 296.543,222.955 311.5,231C 322.626,240.71 326.793,252.876 324,267.5C 321.721,274.724 318.388,281.391 314,287.5C 307.865,294.636 301.365,301.469 294.5,308C 281.871,318.293 269.538,328.96 257.5,340C 256.167,340.667 254.833,340.667 253.5,340C 241.462,328.96 229.129,318.293 216.5,308C 204.464,297.735 194.964,285.569 188,271.5C 182.476,250.564 189.309,235.564 208.5,226.5 Z M 71.5,392.5 C 83.7382,390.809 94.7382,393.642 104.5,401C 108.184,404.752 111.85,408.419 115.5,412C 117.137,412.601 118.803,413.101 120.5,413.5C 146.198,410.686 159.365,422.353 160,448.5C 163.734,451.952 167.9,454.785 172.5,457C 179.475,465.197 180.309,474.03 175,483.5C 170.816,488.008 165.649,490.508 159.5,491C 122.833,491.667 86.1667,491.667 49.5,491C 34.958,489.82 25.458,482.32 21,468.5C 18.9691,458.87 20.9691,450.204 27,442.5C 31,439.167 35,435.833 39,432.5C 41.1193,411.857 51.9526,398.523 71.5,392.5 Z M 423.5,392.5 C 451.836,390.998 468.003,404.331 472,432.5C 476,435.833 480,439.167 484,442.5C 495.263,460.802 492.097,475.968 474.5,488C 470.339,489.737 466.005,490.737 461.5,491C 424.833,491.667 388.167,491.667 351.5,491C 336.674,488.863 330.507,480.363 333,465.5C 334.439,462.397 336.273,459.564 338.5,457C 343.1,454.785 347.266,451.952 351,448.5C 351.635,422.353 364.802,410.686 390.5,413.5C 392.197,413.101 393.863,412.601 395.5,412C 399.15,408.419 402.816,404.752 406.5,401C 411.712,397.061 417.379,394.227 423.5,392.5 Z M 179.5,431.5 C 230.167,431.5 280.833,431.5 331.5,431.5C 331.66,433.199 331.494,434.866 331,436.5C 324.833,440 320,444.833 316.5,451C 275.833,451.667 235.167,451.667 194.5,451C 191,444.833 186.167,440 180,436.5C 179.506,434.866 179.34,433.199 179.5,431.5 Z M 199.5,471.5 C 236.833,471.5 274.167,471.5 311.5,471.5C 311.093,478.205 312.426,484.538 315.5,490.5C 275.5,491.833 235.5,491.833 195.5,490.5C 198.574,484.538 199.907,478.205 199.5,471.5 Z"/></g>
<g><path style="opacity:0.908" fill="#000000" d="M 120.5,91.5 C 132.324,89.8236 137.158,94.8236 135,106.5C 131.345,111.275 126.512,112.775 120.5,111C 115.725,107.345 114.225,102.512 116,96.5C 117.366,94.6383 118.866,92.9717 120.5,91.5 Z"/></g>
<g><path style="opacity:0.943" fill="#000000" d="M 205.5,205.5 C 226.456,202.653 243.123,209.653 255.5,226.5C 271.083,206.099 291.083,200.266 315.5,209C 339.274,222.589 349.107,243.089 345,270.5C 341.808,284.22 335.475,296.22 326,306.5C 305.06,327.113 283.227,346.613 260.5,365C 255.816,366.102 251.483,365.436 247.5,363C 232.833,350.333 218.167,337.667 203.5,325C 192.178,315.02 182.345,303.853 174,291.5C 163.861,272.312 162.861,252.645 171,232.5C 178.627,218.354 190.127,209.354 205.5,205.5 Z M 208.5,226.5 C 189.309,235.564 182.476,250.564 188,271.5C 194.964,285.569 204.464,297.735 216.5,308C 229.129,318.293 241.462,328.96 253.5,340C 254.833,340.667 256.167,340.667 257.5,340C 269.538,328.96 281.871,318.293 294.5,308C 301.365,301.469 307.865,294.636 314,287.5C 318.388,281.391 321.721,274.724 324,267.5C 326.793,252.876 322.626,240.71 311.5,231C 296.543,222.955 283.71,225.455 273,238.5C 269.215,245.072 265.715,251.738 262.5,258.5C 256.111,261.916 250.611,260.916 246,255.5C 244.136,249.44 241.47,243.774 238,238.5C 230.706,228.345 220.873,224.345 208.5,226.5 Z"/></g>
</svg>
