<?xml version="1.0" encoding="UTF-8"?>
<svg version="1.1" viewBox="0 0 2048 2048" width="512" height="512" xmlns="http://www.w3.org/2000/svg">
<path transform="translate(980)" d="m0 0h95v1l46 7 32 7 34 10 30 11 25 11 17 8 22 12 20 12 15 10 14 10 16 12 13 11 11 9 8 8 8 7 18 18 7 8 9 10 9 11 10 13 13 18 10 15 8 13 12 21 12 23 11 25 11 29 9 29 7 28 6 32 4 33 2 30v27l-2 25-5 30-7 30-9 30-12 34v2l35 12 40 13 41 14 144 48 37 12 38 13 40 13 38 13 12 6 9 8 6 10 2 6 1 7v1146l-1 16-4 10-7 9-8 7-11 5h-20l-25-9-552-184h-7l-49 16-132 44-38 13-43 14-300 100-15 6h-26v-2l-5-1-28-10-558-186-11-6-8-8-7-14-1-6v-1159l4-13 6-9 9-8 11-5 5-1h10l16 4 366 122 40 13 13 5-13-27-16-38-13-34-11-33-9-33-7-36-3-27v-44l3-33 4-28 7-34 10-36 10-28 10-24 12-25 10-19 10-17 11-17 12-17 9-12 13-16 9-11 7-8 31-31 8-7 10-9 13-10 17-13 19-13 19-12 23-13 26-13 31-13 35-12 30-8 29-6 33-5zm13 81-30 3-29 5-32 8-33 11-26 11-16 8-23 12-19 12-22 15-16 13-10 8-15 14-25 25-9 11-11 13-13 18-10 15-15 25-11 21-11 25-10 27-8 27-7 31-5 34-2 28v31l3 26 6 28 7 25 11 33 12 30 13 30 12 26 19 39 10 19 12 22 14 24 14 26 13 22 17 29 28 46 12 19 14 23 15 23 10 16 17 26 15 23 29 44 26 39 29 43 56 84 9 13 14 21h4l78-117 9-13 10-15 29-43 13-20 22-33 10-16 10-15 16-25 11-17 9-14 39-63 17-28 16-27 15-26 13-23 26-48 20-39 15-31 12-27 9-20 13-34 9-27 8-30 5-25 2-16 1-16-1-32-3-31-5-30-8-32-12-36-11-26-8-16-11-21-13-21-12-17-9-12-11-13-9-11-7-7-1-2h-2l-2-4-8-8h-2v-2h-2v-2l-8-7-15-13-17-13-18-13-21-13-18-10-16-8-24-11-24-9-31-9-31-7-28-4-24-2zm-816 636v1065l31 10 38 13 40 13 38 13 40 13 294 98 23 8 6 1 1-2-1-981-9-16-12-20-14-24-14-25-9-15-5-3-444-148zm1299 39-23 47-19 37-6 10-7 14-26 46-15 25-6 11-10 16-3 6-1 30v783l2 2 17 5 38 13 40 13 38 13 40 13 38 13 43 14 87 29 38 13 43 14 51 17 29 10 7 1v-1063l-4-3-387-129zm-707 344v851l6-1 35-12 468-156 1-1v-681l-5 5-10 16-8 12-21 32-9 14-24 36-13 19-36 54-19 28-34 51-15 23-7 11-8 12-11 17-7 8v2l-4 2-9 5-11 3h-9l-13-4-11-8-10-14-16-25-19-29-68-102-19-28-29-43-21-32-17-26-26-39z"/>
<path transform="translate(1019,228)" d="m0 0 29 1 29 4 26 6 23 8 21 9 21 11 21 14 13 10 14 12 22 22 9 11 14 19 9 15 10 18 11 26 7 21 6 26 3 19 1 12v43l-3 24-5 25-8 26-8 20-8 16-11 19-11 16-11 14-10 11-7 8-16 15-10 8-18 13-13 8-24 13-27 11-28 8-27 5-18 2-16 1h-12l-26-2-25-4-27-7-22-8-20-9-15-8-19-12-16-12-14-12-23-23-9-11-12-16-12-19-13-25-9-23-5-15-5-21-4-23-2-23v-22l2-25 4-24 6-23 8-23 9-20 10-19 12-18 8-11 13-16 11-12 9-9 11-9 15-12 15-10 17-10 16-8 24-10 23-7 24-5 23-3zm-15 82-20 3-20 5-20 7-25 13-12 8-14 11-15 14-12 13-13 18-9 15-10 22-7 22-4 18-3 31 1 21 3 22 6 23 8 20 8 16 11 18 11 14 12 13 6 6h2v2l14 11 10 7 17 10 21 10 19 6 16 4 24 3h30l23-3 24-6 25-10 17-9 15-10 10-8 10-9 9-8 7-8 11-14 12-19 11-23 7-21 4-16 3-24v-30l-3-23-6-24-8-21-10-20-12-18-8-10-12-13-9-9-14-11-18-12-19-10-24-9-20-5-21-3z"/>
</svg>
